<?xml version="1.0" standalone="no"?>
<!DOCTYPE svg PUBLIC "-//W3C//DTD SVG 20010904//EN"
 "http://www.w3.org/TR/2001/REC-SVG-20010904/DTD/svg10.dtd">
<svg version="1.0" xmlns="http://www.w3.org/2000/svg"
 width="500.000000pt" height="500.000000pt" viewBox="0 0 500.000000 500.000000"
 preserveAspectRatio="xMidYMid meet">

<g transform="translate(0.000000,500.000000) scale(0.100000,-0.100000)"
fill="#000000" stroke="none">
<path d="M0 2500 l0 -2500 2500 0 2500 0 0 2500 0 2500 -2500 0 -2500 0 0
-2500z m2527 1475 l20 -70 44 -8 c233 -43 374 -112 515 -252 139 -138 221
-309 249 -517 3 -27 12 -48 18 -48 7 0 46 -10 87 -23 l75 -23 -86 -24 -86 -24
-11 -75 c-51 -351 -317 -639 -662 -715 -41 -9 -90 -20 -109 -24 -32 -7 -35
-11 -53 -72 -28 -101 -28 -101 -53 -17 -13 43 -25 81 -28 83 -3 3 -36 10 -73
15 -383 54 -684 360 -732 744 l-7 59 -85 26 -84 26 84 25 85 25 7 64 c10 89
43 191 91 285 127 245 359 410 639 455 l78 13 20 67 c11 37 20 73 20 81 0 29
19 -9 37 -76z m-400 -2237 c43 -13 46 -20 29 -63 l-15 -36 -32 16 c-37 20
-133 23 -154 5 -8 -7 -15 -23 -15 -36 0 -28 9 -33 123 -65 58 -16 84 -30 102
-51 49 -58 23 -147 -51 -183 -55 -27 -173 -26 -236 3 -27 11 -48 23 -48 26 0
3 7 21 16 39 l16 34 42 -20 c49 -24 145 -29 170 -8 19 16 21 44 3 59 -7 6 -44
20 -84 30 -85 24 -112 37 -135 66 -21 26 -23 87 -4 125 37 70 155 96 273 59z
m458 -19 c70 -35 107 -92 113 -168 7 -100 -30 -171 -112 -213 -35 -19 -62 -23
-183 -26 l-143 -4 0 222 0 222 138 -4 c124 -3 142 -5 187 -29z m296 -71 l0
-103 98 103 97 103 55 -3 54 -3 -75 -80 c-42 -44 -82 -88 -89 -97 -11 -15 -2
-32 78 -133 50 -63 91 -117 91 -120 0 -3 -24 -5 -54 -5 l-54 0 -68 83 c-37 45
-69 84 -71 86 -2 3 -17 -8 -33 -24 -27 -25 -30 -35 -30 -87 l0 -58 -50 0 -50
0 0 220 0 220 50 0 50 0 1 -102z m-1283 -556 c3 -11 0 -11 -16 -1 -24 15 -54
5 -46 -15 3 -8 19 -19 35 -25 39 -13 42 -57 4 -67 -26 -6 -55 9 -55 30 0 6 5
3 11 -6 5 -10 19 -18 30 -18 27 0 37 31 15 44 -44 26 -57 41 -50 59 8 21 65
20 72 -1z m255 6 c9 -7 19 -25 22 -40 5 -21 1 -33 -19 -52 -14 -15 -34 -26
-46 -26 -11 0 -32 11 -46 26 -42 42 -15 104 46 104 14 0 34 -6 43 -12z m215
-111 c25 -4 24 -4 -5 -6 l-33 -1 2 68 2 67 3 -62 c4 -58 5 -62 31 -66z m185
16 c11 -17 42 -17 55 0 6 7 12 35 15 62 l3 50 2 -52 c1 -35 -3 -56 -14 -67
-40 -40 -85 0 -83 74 l2 45 6 -50 c4 -27 10 -56 14 -62z m280 100 c-21 -4 -23
-11 -25 -66 l-2 -62 -3 62 c-3 48 -8 63 -21 66 -9 3 3 5 28 4 25 0 35 -2 23
-4z m164 -90 c-2 -21 -4 -6 -4 32 0 39 2 55 4 38 2 -18 2 -50 0 -70z m277 75
c22 -31 20 -58 -6 -85 -25 -27 -54 -29 -86 -7 -27 18 -30 69 -5 96 23 26 78
24 97 -4z m268 -28 c4 52 4 52 6 -15 l2 -70 -48 54 -47 55 -6 -55 -6 -54 -1
70 -1 70 49 -55 49 -55 3 55z m232 35 c4 -12 2 -13 -13 -3 -19 12 -51 5 -51
-11 0 -5 16 -19 36 -30 38 -23 42 -46 12 -65 -20 -12 -49 0 -56 25 -2 8 2 6
10 -5 17 -22 51 -18 56 6 2 12 -8 22 -32 32 -34 14 -47 41 -29 59 12 13 61 7
67 -8z"/>
<path d="M2279 3656 c-210 -73 -387 -268 -424 -468 l-7 -36 39 9 c61 14 60 15
49 -51 -5 -33 -7 -63 -3 -66 7 -7 183 34 217 49 13 6 15 -4 15 -60 l0 -68 -80
27 c-44 15 -97 28 -118 28 l-39 0 7 -60 c4 -33 3 -60 -2 -60 -4 0 -25 4 -45 9
-46 11 -47 6 -17 -82 59 -180 204 -329 386 -402 32 -13 73 -26 91 -30 30 -6
33 -5 29 11 -3 11 -8 33 -12 50 l-6 31 48 -8 c77 -13 83 -12 83 15 0 22 -38
159 -55 200 -7 16 -5 17 21 12 16 -4 51 -2 77 3 43 8 47 7 41 -8 -19 -43 -53
-151 -59 -189 l-7 -43 39 6 c21 4 51 9 66 12 25 4 28 2 24 -13 -3 -11 -8 -33
-12 -51 l-6 -32 53 15 c122 36 232 105 313 196 52 60 133 213 142 272 l6 38
-34 -7 c-19 -3 -41 -8 -50 -11 -13 -4 -14 3 -5 56 5 33 7 63 3 66 -10 10 -146
-25 -197 -51 l-45 -23 0 89 c0 56 4 88 10 85 68 -31 140 -56 183 -64 l52 -9 0
31 c0 17 -4 48 -9 69 -8 33 -7 37 7 33 10 -3 34 -8 54 -12 l38 -6 -16 51 c-52
178 -170 324 -323 405 -53 27 -157 66 -179 66 -4 0 5 -48 15 -83 4 -16 -1 -17
-62 -11 -66 7 -66 7 -61 -17 21 -100 30 -137 41 -159 7 -14 15 -35 19 -47 6
-20 5 -21 -36 -11 -24 5 -58 6 -77 3 -38 -7 -38 -14 -2 87 11 31 23 78 27 104
l7 47 -67 -5 -67 -6 6 32 c4 17 9 39 11 49 7 23 -15 21 -97 -7z m262 -597 c18
-34 -3 -69 -41 -69 -38 0 -59 35 -41 69 16 29 66 29 82 0z"/>
<path d="M2364 1657 c-2 -7 -3 -69 -2 -138 l3 -124 70 1 c85 1 126 20 150 70
39 82 -5 174 -91 194 -58 14 -124 12 -130 -3z"/>
<path d="M1765 1077 c-31 -49 21 -106 73 -78 46 24 28 94 -25 99 -25 2 -35 -2
-48 -21z"/>
<path d="M2882 1088 c-19 -19 -14 -63 8 -83 46 -41 116 29 75 75 -20 22 -64
27 -83 8z"/>
</g>
</svg>
