<svg version="1.1" preserveAspectRatio="none" xmlns="http://www.w3.org/2000/svg" width="500" height="500" viewBox="0 0 500 500"><rect width="100%" height="100%" fill="#14051E" fill-opacity="1"/><svg viewBox="161.702 729.1027 366.2649 332.4998" width="333" height="302.3015129213856" x="83.5px" y="98.8492px" xmlns="http://www.w3.org/2000/svg" xmlns:xlink="http://www.w3.org/1999/xlink" preserveAspectRatio="none"><defs></defs><style>.aD6z1nYkhcolor {fill:#D6C7F4;fill-opacity:1;}.icon1 {fill:#907DB3;fill-opacity:1;}.icon2 {fill:#D6C7F4;fill-opacity:1;}.icon3 {fill:#6A588A;fill-opacity:1;}.icon3-str {stroke:#6A588A;stroke-opacity:1;}</style><g opacity="1" transform="rotate(0 161.702 941.6025)">
<svg width="366.2649" height="120" x="161.702" y="941.6025" version="1.1" preserveAspectRatio="none" viewBox="0.84 -28.56 88.88 29.12">
  <g transform="matrix(1 0 0 1 0 0)" class="aD6z1nYkhcolor"><path id="id-D6z1nYkh3" d="M12.64 0.56Q9.24 0.56 6.04-0.28Q2.84-1.12 0.84-2.52L0.84-2.52L3.44-8.36Q5.32-7.12 7.80-6.36Q10.28-5.60 12.68-5.60L12.68-5.60Q17.24-5.60 17.24-7.88L17.24-7.88Q17.24-9.08 15.94-9.66Q14.64-10.24 11.76-10.88L11.76-10.88Q8.60-11.56 6.48-12.34Q4.36-13.12 2.84-14.84Q1.32-16.56 1.32-19.48L1.32-19.48Q1.32-22.04 2.72-24.10Q4.12-26.16 6.90-27.36Q9.68-28.56 13.72-28.56L13.72-28.56Q16.48-28.56 19.16-27.94Q21.84-27.32 23.88-26.12L23.88-26.12L21.44-20.24Q17.44-22.40 13.68-22.40L13.68-22.40Q11.32-22.40 10.24-21.70Q9.16-21 9.16-19.88L9.16-19.88Q9.16-18.76 10.44-18.20Q11.72-17.64 14.56-17.04L14.56-17.04Q17.76-16.36 19.86-15.58Q21.96-14.80 23.50-13.10Q25.04-11.40 25.04-8.48L25.04-8.48Q25.04-5.96 23.64-3.92Q22.24-1.88 19.44-0.66Q16.64 0.56 12.64 0.56L12.64 0.56Z M28.68 0L28.68-28L41.92-28Q46.52-28 50.08-26.28Q53.64-24.56 55.60-21.40Q57.56-18.24 57.56-14L57.56-14Q57.56-9.76 55.60-6.60Q53.64-3.44 50.08-1.72Q46.52 0 41.92 0L41.92 0L28.68 0ZM36.60-6.32L41.60-6.32Q45.20-6.32 47.38-8.36Q49.56-10.40 49.56-14L49.56-14Q49.56-17.60 47.38-19.64Q45.20-21.68 41.60-21.68L41.60-21.68L36.60-21.68L36.60-6.32Z M80.52 0L72.52-10.16L69.56-7L69.56 0L61.72 0L61.72-28L69.56-28L69.56-16.36L80.40-28L89.12-28L77.68-15.60L89.72 0L80.52 0Z"/></g>
</svg>
</g><g opacity="1" transform="rotate(0 253.2682 729.1027)">
<svg width="183.1325" height="182.4998" x="253.2682" y="729.1027" version="1.1" preserveAspectRatio="none" viewBox="5.000175952911377 5.15557861328125 89.9996566772461 89.688720703125">
  <g transform="matrix(1 0 0 1 0 0)" class="icon1"><g transform="translate(0,-952.36216)"><path style="color:#000000;clip-rule:nonzero;display:inline;overflow:visible;visibility:visible;opacity:1;isolation:auto;mix-blend-mode:normal;color-interpolation:sRGB;color-interpolation-filters:linearRGB;solid-color:#000000;solid-opacity:1;fill-rule:nonzero;stroke-width:7.5;stroke-linecap:round;stroke-linejoin:round;stroke-miterlimit:4;stroke-dasharray:none;stroke-dashoffset:0;marker:none;color-rendering:auto;image-rendering:auto;shape-rendering:auto;text-rendering:auto;enable-background:accumulate" d="m 49.973743,957.5178 c -0.660042,0 -1.321369,0.012 -1.983374,0.038 -10.569413,0.4392 -20.643443,4.5982 -28.444693,11.7426 -6.32663,5.8241 -10.7823696,13.3278 -12.9590296,21.572 2.472,-3.6972 5.4555696,-7.0366 8.8849796,-9.8972 a 0.87671453,0.87671453 0 0 1 0.002,0 c 11.45328,-9.5125 26.76276,-12.9832 41.198258,-9.3411 0.491005,0.1155 0.9789,0.2429 1.46378,0.3817 l 0.03104,0.01 c 0.381742,0.095 0.762245,0.1936 1.141462,0.2981 a 0.87671453,0.87671453 0 0 1 0.05568,0.019 c 0.140588,0.049 0.280871,0.099 0.420968,0.1494 l 0.01379,0 c 0.225212,0.077 0.449581,0.1567 0.672993,0.2387 a 0.87671453,0.87671453 0 0 1 0.02466,0.01 c 0.02291,0.01 0.04568,0.019 0.06849,0.027 0.831581,0.2946 1.650093,0.6239 2.454088,0.9868 8.814659,3.6369 16.255281,9.8977 21.392899,17.8754 0.09718,-8.723 -2.331501,-17.3062 -7.055023,-24.6872 -7.850206,-6.0899 -17.48146,-9.396 -27.382271,-9.4232 l 0,0 z m 31.756732,12.8837 c 1.966169,3.9899 3.366645,8.2438 4.129264,12.6444 2.511501,14.6771 -2.139367,29.673 -12.514305,40.3536 l -0.004,0 c -0.342515,0.364 -0.693891,0.7191 -1.053331,1.0664 l -0.02338,0.024 c -0.272689,0.2828 -0.548465,0.5627 -0.828237,0.8387 a 0.87671453,0.87671453 0 0 1 -0.04383,0.04 c -0.1127,0.097 -0.226077,0.1938 -0.339688,0.2899 l -0.01145,0.01 c -0.179229,0.1564 -0.360142,0.3104 -0.542878,0.4628 a 0.87671453,0.87671453 0 0 1 -0.01636,0.014 c -0.01332,0.012 -0.02679,0.021 -0.04018,0.032 -0.677761,0.58 -1.380301,1.1303 -2.104816,1.6509 -7.556641,5.8145 -16.697475,9.1281 -26.174608,9.5886 7.505727,4.4456 16.153055,6.6334 24.906702,6.2332 20.240566,-8.2578 31.591925,-29.8864 26.863587,-51.2439 -1.880493,-8.391 -6.150998,-16.0018 -12.202459,-22.0089 z m -58.458699,7.4398 c 0,0 0,0 -0.002,0 l 0.002,0 0,0 z m -0.002,0 c -4.34522,2.445 -8.2384,5.5763 -11.52673,9.2726 -0.15417,0.1747 -0.31199,0.3463 -0.46342,0.5235 -0.60855,0.7057 -1.18887,1.4362 -1.7532596,2.1801 -0.30684,0.4074 -0.60244,0.8228 -0.89535,1.2408 -0.43637,0.6178 -0.87006,1.2383 -1.27567,1.879 -0.56581,0.9017 -1.09966,1.8236 -1.60121,2.7655 -0.10732,0.1999 -0.23026,0.3894 -0.33468,0.5912 -2.96882,21.6585 10.0874696,42.3044 30.9490396,48.8875 8.20661,2.5663 16.932645,2.6731 25.160104,0.436 -4.438304,-0.2923 -8.822327,-1.207 -13.014707,-2.7468 a 0.87671453,0.87671453 0 0 1 -0.0023,0 c -13.966767,-5.1635 -24.628207,-16.6896 -28.690357,-31.0153 0,0 -0.002,0 -0.002,0 -0.14388,-0.4785 -0.27627,-0.9608 -0.39722,-1.4456 -0.11207,-0.388 -0.21904,-0.7775 -0.32098,-1.1684 a 0.87671453,0.87671453 0 0 1 -0.0129,-0.058 c -0.0277,-0.1461 -0.0549,-0.2925 -0.0813,-0.4388 -0.0471,-0.2382 -0.0913,-0.4762 -0.13287,-0.7153 a 0.87671453,0.87671453 0 0 1 -0.004,-0.025 c -0.004,-0.023 -0.007,-0.046 -0.0101,-0.068 -0.1615,-0.8694 -0.28559,-1.7451 -0.37346,-2.6248 -1.25786,-9.4526 0.4435,-19.027 4.784,-27.4655 z"></path></g></g>
</svg>
</g></svg></svg>